<?xml version="1.0" encoding="UTF-8"?>
<svg width="37px" height="21px" viewBox="0 0 37 21" version="1.1" xmlns="http://www.w3.org/2000/svg" xmlns:xlink="http://www.w3.org/1999/xlink">
    <g stroke="none" stroke-width="1" fill="none" fill-rule="evenodd">
        <g transform="translate(-2152.000000, -1930.000000)" fill-rule="nonzero">
            <g id="SVG" transform="translate(2152.000000, 1930.000000)">
                <path d="M21,4 L21,15 L19,15 L19,1 L18,1 L18,0 L30,0 L30,1 L31,1 L31,4 L21,4 Z" id="Box-front" fill="#2C333A"></path>
                <path d="M8,11 L8,10 L7,10 L7,9 L6,9 L6,8 L5,8 L5,7 L4,7 L4,6 L3,6 L3,4 L4,4 L4,3 L5,3 L5,2 L8,2 L8,3 L9,3 L9,4 L10,4 L10,3 L11,3 L11,2 L14,2 L14,3 L15,3 L15,4 L16,4 L16,6 L15,6 L15,7 L14,7 L14,8 L13,8 L13,9 L12,9 L12,10 L11,10 L11,11 L10,11 L10,12 L9,12 L9,11 L8,11 Z M7,3 L6,3 L6,4 L7,4 L7,5 L8,5 L8,4 L7,4 L7,3 Z M13,3 L12,3 L12,4 L13,4 L13,5 L14,5 L14,4 L13,4 L13,3 Z" id="Heart" fill="#EF5350"></path>
                <path d="M19,15 L11,15 L11,14 L6,14 L6,15 L0,15 L0,0 L18,0 L18,1 L19,1 L19,15 Z M8,2 L5,2 L5,3 L4,3 L4,4 L3,4 L3,6 L4,6 L4,7 L5,7 L5,8 L6,8 L6,9 L7,9 L7,10 L8,10 L8,11 L9,11 L9,12 L10,12 L10,11 L11,11 L11,10 L12,10 L12,9 L13,9 L13,8 L14,8 L14,7 L15,7 L15,6 L16,6 L16,4 L15,4 L15,3 L14,3 L14,2 L11,2 L11,3 L10,3 L10,4 L9,4 L9,3 L8,3 L8,2 Z" id="Box-side" fill="#3E4751"></path>
                <path d="M8,4 L8,5 L7,5 L7,4 L8,4 Z M14,4 L14,5 L13,5 L13,4 L14,4 Z M7,3 L7,4 L6,4 L6,3 L7,3 Z M13,3 L13,4 L12,4 L12,3 L13,3 Z" id="Heart-shine" fill="#FFFFFF"></path>
                <path d="M5,15 L5,17 L2,17 L2,15 L5,15 Z M22,17 L12,17 L12,15 L21,15 L21,4 L28,4 L28,5 L29,5 L29,7 L28,7 L28,11 L27,11 L27,7 L23,7 L23,11 L26,11 L26,12 L28,12 L28,11 L30,11 L30,12 L31,12 L31,13 L30,13 L30,17 L29,17 L29,15 L28,15 L28,14 L23,14 L23,15 L22,15 L22,17 Z" id="Panel-shade" fill="#673AB7"></path>
                <path d="M36,15 L32,15 L32,13 L31,13 L31,12 L30,12 L30,11 L36,11 L36,12 L37,12 L37,13 L36,13 L36,15 Z M28,11 L28,12 L26,12 L26,11 L28,11 Z M33,4 L33,5 L34,5 L34,7 L29,7 L29,5 L28,5 L28,4 L33,4 Z" id="Panel-front" fill="#8963CF"></path>
                <path d="M27,11 L23,11 L23,7 L27,7 L27,11 Z" id="Side-window" fill="#9EBBDE"></path>
                <path d="M28,7 L29,7 L29,11 L28,11 L28,7 Z" id="Windshield-side" fill="#9EBBDE"></path>
                <path d="M35,11 L29,11 L29,7 L34,7 L34,9 L35,9 L35,11 Z" id="Windshield" fill="#CAD7E6"></path>
                <path d="M28,19 L28,16 L27,16 L27,15 L24,15 L24,16 L23,16 L23,19 L11,19 L11,16 L10,16 L10,15 L7,15 L7,16 L6,16 L6,19 L3,19 L3,18 L2,18 L2,17 L5,17 L5,15 L6,15 L6,14 L11,14 L11,15 L12,15 L12,17 L22,17 L22,15 L23,15 L23,14 L28,14 L28,15 L29,15 L29,17 L30,17 L30,13 L31,13 L31,18 L30,18 L30,19 L28,19 Z" id="Bumper-side" fill="#9EBBDE"></path>
                <path d="M30,19 L30,18 L31,18 L31,13 L32,13 L32,15 L36,15 L36,13 L37,13 L37,18 L36,18 L36,19 L30,19 Z" id="Bumper-front" fill="#CAD7E6"></path>
                <path d="M7,21 L7,20 L6,20 L6,16 L7,16 L7,15 L9,15 L9,16 L10,16 L10,20 L9,20 L9,21 L7,21 Z M9,17 L7,17 L7,19 L9,19 L9,17 Z" id="Rear-wheel" fill="#3E4751"></path>
                <path d="M11,16 L11,19 L12,19 L12,20 L11,20 L11,21 L9,21 L9,20 L10,20 L10,16 L11,16 Z M18,19 L18,20 L17,20 L17,21 L14,21 L14,20 L13,20 L13,19 L18,19 Z M28,16 L28,19 L29,19 L29,20 L28,20 L28,21 L26,21 L26,20 L27,20 L27,16 L28,16 Z M31,21 L31,20 L30,20 L30,19 L35,19 L35,20 L34,20 L34,21 L31,21 Z M10,15 L10,16 L9,16 L9,15 L10,15 Z M27,15 L27,16 L26,16 L26,15 L27,15 Z" id="Wheels-shade" fill="#2C333A"></path>
                <path d="M24,21 L24,20 L23,20 L23,16 L24,16 L24,15 L26,15 L26,16 L27,16 L27,20 L26,20 L26,21 L24,21 Z M26,17 L24,17 L24,19 L26,19 L26,17 Z" id="Front-wheel" fill="#3E4751"></path>
                <path d="M9,19 L7,19 L7,17 L9,17 L9,19 Z" id="Rear-hub" fill="#C8E0FF"></path>
                <path d="M26,19 L24,19 L24,17 L26,17 L26,19 Z" id="Front-hub" fill="#C8E0FF"></path>
            </g>
        </g=>
    </g>
</svg>
