<svg width="504" height="493" viewBox="0 0 504 493" fill="none" xmlns="http://www.w3.org/2000/svg">
    <path
        d="M462.045 146.028C457.873 146.028 453.701 146.028 449.529 150.2L211.727 388.017C207.555 392.189 207.555 400.533 211.727 404.706C215.899 408.878 224.243 408.878 228.415 404.706L324.37 308.745C328.542 317.089 341.058 325.433 349.402 325.433C303.51 396.361 220.071 458.945 215.899 458.945C203.383 458.945 190.867 454.772 178.352 450.6C174.18 450.6 170.008 446.428 170.008 446.428C165.836 442.256 157.492 446.428 153.32 454.772C149.148 463.117 153.32 467.289 161.664 471.461C165.836 471.461 170.008 475.633 174.18 475.633C199.211 483.978 224.243 488.15 253.447 488.15C386.95 488.15 495.421 379.672 495.421 246.161C495.421 212.783 487.077 179.406 474.561 150.2C470.389 146.028 466.217 146.028 462.045 146.028ZM386.95 250.333C386.95 254.506 386.95 262.85 382.778 267.022C378.606 262.85 378.606 262.85 374.434 262.85L386.95 250.333ZM349.402 292.056C349.402 287.883 353.574 283.711 357.746 283.711C361.918 283.711 366.09 287.883 366.09 292.056C366.09 296.228 361.918 300.4 357.746 300.4C353.574 300.4 349.402 296.228 349.402 292.056ZM257.619 463.117C307.682 425.567 420.326 321.261 411.982 225.3L457.873 179.406C466.217 200.267 470.389 225.3 470.389 250.333C470.389 362.983 374.434 458.944 257.619 463.117Z"
        fill="white" />
    <path
        d="M11.4729 283.711C15.6449 283.711 19.8168 283.711 19.8168 279.539L153.32 146.028C153.32 146.028 161.664 133.511 186.695 133.511C190.867 146.028 199.211 154.372 207.555 158.544L111.6 250.333C107.428 254.505 107.428 262.85 111.6 267.022C115.772 271.194 115.772 271.194 119.944 271.194C124.116 271.194 128.288 271.194 128.288 267.022L349.402 45.8944C353.574 41.7221 353.574 37.5499 353.574 37.5499C353.574 37.5499 349.402 29.2055 345.23 29.2055C320.198 20.861 295.166 12.5166 270.135 12.5166C265.963 12.5166 257.619 12.5166 253.447 12.5166C153.32 12.5166 61.5365 75.0999 28.1608 171.061C23.9888 175.233 28.1607 179.405 32.3327 183.578C40.6766 187.75 44.8486 183.578 49.0206 175.233C78.2243 95.9611 149.148 41.7222 232.587 33.3777C199.211 66.7555 182.523 95.961 178.351 108.478C149.148 112.65 132.46 129.339 132.46 129.339L3.12897 262.85C-1.04299 267.022 -1.04299 275.367 3.12897 279.539C3.12897 279.539 7.30093 283.711 11.4729 283.711ZM274.307 33.3777C290.995 33.3777 307.682 37.5499 320.198 41.7221L253.447 108.478C245.103 95.961 232.587 87.6166 220.071 87.6166C228.415 70.9277 245.103 54.2388 274.307 33.3777ZM220.071 112.65C224.243 112.65 232.587 116.822 232.587 125.167C232.587 129.339 228.415 137.683 220.071 137.683C215.899 137.683 207.555 133.511 207.555 125.167C207.555 116.822 211.727 112.65 220.071 112.65Z"
        fill="white" />
    <path
        d="M157.492 371.328C153.32 367.156 144.976 367.156 140.804 371.328L40.6768 471.461C36.5049 475.633 36.5049 483.978 40.6768 488.15C44.8488 492.322 44.8488 492.322 49.0207 492.322C53.1927 492.322 57.3647 492.322 57.3647 488.15L157.492 388.017C165.836 383.845 165.836 375.5 157.492 371.328Z"
        fill="white" />
    <path
        d="M99.0843 342.122L65.7086 371.328C61.5366 375.5 61.5366 383.844 65.7086 388.017C69.8805 392.189 69.8805 392.189 74.0525 392.189C78.2244 392.189 82.3964 392.189 82.3964 388.017L115.772 354.639C119.944 350.467 119.944 342.122 115.772 337.95C111.6 337.95 103.256 337.95 99.0843 342.122Z"
        fill="white" />
    <path
        d="M99.0841 279.539C94.9121 275.367 86.5682 275.367 82.3962 279.539L7.30085 354.639C3.12888 358.811 3.12888 367.155 7.30085 371.328C11.4728 375.5 11.4728 375.5 15.6448 375.5C19.8168 375.5 23.9887 375.5 23.9887 371.328L99.0841 296.228C103.256 292.055 103.256 283.711 99.0841 279.539Z"
        fill="white" />
    <path
        d="M453.701 20.8611C449.529 20.8611 441.185 20.8611 437.013 20.8611L395.294 8.34445C391.122 8.34445 386.95 8.34445 391.122 12.5167L407.81 50.0667C407.81 54.2389 407.81 62.5833 407.81 66.7555L399.466 79.2722L245.103 233.644C240.931 237.817 240.931 246.161 245.103 250.333C249.275 254.506 249.275 254.506 253.447 254.506C257.619 254.506 261.791 254.506 261.791 250.333L407.81 104.306L428.669 95.9611C432.841 95.9611 441.185 95.9611 445.357 95.9611L482.905 116.822C487.077 116.822 491.249 116.822 487.077 112.65L478.733 66.7555C478.733 62.5833 478.733 54.2389 482.905 50.0667L503.765 4.17223C503.765 5.90624e-06 503.765 0 499.593 0L453.701 20.8611Z"
        fill="white" />
    <path
        d="M199.211 241.989C199.211 237.817 195.039 237.817 195.039 241.989L182.523 271.194C182.523 275.367 174.179 279.539 170.007 283.711L144.976 296.228C140.804 296.228 140.804 300.4 144.976 300.4L170.007 312.917C174.179 312.917 178.351 321.261 182.523 325.433L190.867 346.294C190.867 350.467 195.039 350.467 195.039 346.294L207.555 321.261C207.555 317.089 215.899 312.917 220.071 308.744L245.103 296.228C249.275 296.228 249.275 292.055 245.103 292.055L220.071 279.539C215.899 279.539 211.727 271.194 207.555 267.022L199.211 241.989Z"
        fill="white" />
</svg>
